<?xml version="1.0" encoding="utf-8"?>
<!-- Generator: Adobe Illustrator 21.0.2, SVG Export Plug-In . SVG Version: 6.00 Build 0)  -->
<svg version="1.1" xmlns="http://www.w3.org/2000/svg" xmlns:xlink="http://www.w3.org/1999/xlink" x="0px" y="0px"
	 viewBox="0 0 119.5 59.9" style="enable-background:new 0 0 119.5 59.9;" xml:space="preserve">
<style type="text/css">
	.st5{display:none;}
	.st1{display:inline;}
	.st2{fill:#4e4e4e;}
</style>
<g id="Ebene_2" class="st5">
	<rect x="-456.6" y="-7.6" class="st1" width="932" height="416"/>
</g>
<g id="Ebene_1">
	<path class="st2" d="M115.9,0c-0.7,0-1.4,0-2.1,0.7C59,52.8,59,52.8,59,52.8C4.3,0.7,4.3,0.7,4.3,0.7C3.6,0,2.8,0,2.1,0
		C0.7,0-0.7,1.4-0.7,2.9c0,0.7,0,1.4,0.7,2.1c56.9,54.2,56.9,54.2,56.9,54.2c0.7,0.7,1.4,0.7,2.1,0.7c0.7,0,1.4,0,2.1-0.7
		C118,5,118,5,118,5c0.7-0.7,1.4-1.4,1.4-2.1C119.5,1.4,118,0,115.9,0z"/>
</g>
</svg>
