<?xml version="1.0" encoding="utf-8"?>
<!-- Generator: Adobe Illustrator 21.0.2, SVG Export Plug-In . SVG Version: 6.00 Build 0)  -->
<svg version="1.1" id="Ebene_1" xmlns="http://www.w3.org/2000/svg" xmlns:xlink="http://www.w3.org/1999/xlink" x="0px" y="0px"
	 viewBox="0 0 134.8 74.5" style="enable-background:new 0 0 134.8 74.5;" xml:space="preserve">
<style type="text/css">
	.st0{fill:#9F9F9F;}
</style>
<path class="st0" d="M4,70.6c1.8,1.9,4.4,3,7.2,3c1.1,0,3.8,0,6.3-2.4L68,23.1l50.6,48.2c2.4,2.4,5.3,2.4,6.4,2.4
	c4.8,0,8.8-4.1,8.8-8.9c0-1.1,0-3.9-2.5-6.3l-0.1-0.1L74.3,4.1c-2.4-2.4-5.2-2.4-6.3-2.4s-3.8,0-6.3,2.4L4.8,58.3l-0.1,0.1
	c-1.1,1.1-3.1,3.1-3.2,6.1C1.6,66.8,2.4,68.9,4,70.6z"/>
</svg>
