<?xml version="1.0" encoding="utf-8"?>
<!-- Generator: Adobe Illustrator 21.0.2, SVG Export Plug-In . SVG Version: 6.00 Build 0)  -->
<svg version="1.1" id="Ebene_1" xmlns="http://www.w3.org/2000/svg" xmlns:xlink="http://www.w3.org/1999/xlink" x="0px" y="0px"
	 viewBox="0 0 134.8 74.5" style="enable-background:new 0 0 134.8 74.5;" xml:space="preserve">
<style type="text/css">
	.st0{fill:#9F9F9F;}
</style>
<path class="st0" d="M131.3,4.8c-1.8-1.9-4.4-3-7.2-3c-1.1,0-3.8,0-6.3,2.4L67.3,52.3L16.7,4.1c-2.4-2.4-5.3-2.4-6.4-2.4
	c-4.8,0-8.8,4.1-8.8,8.9c0,1.1,0,3.9,2.5,6.3c0,0,0.1,0.1,0.1,0.1L61,71.3c2.4,2.4,5.2,2.4,6.3,2.4s3.8,0,6.3-2.4l56.9-54.2
	c0,0,0.1-0.1,0.1-0.1c1.1-1.1,3.1-3.1,3.2-6.1C133.7,8.6,132.9,6.5,131.3,4.8z"/>
</svg>
