<svg id="Layer_1" data-name="Layer 1" xmlns="http://www.w3.org/2000/svg" viewBox="0 0 352 430"><defs><style>.cls-1{fill:#00a9ac;}.cls-2{fill:#fff;}</style></defs><title>Icon1-SVG</title><path class="cls-1" d="M795.5,737.5h-352V399.73L545,307.5H795.5Zm-344-8h336v-414H548L451.5,403.27Z" transform="translate(-443.5 -307.5)"/><rect class="cls-1" x="4" y="91.08" width="103.5" height="8"/><rect class="cls-1" x="99" y="4" width="8" height="90"/><rect class="cls-1" x="7.38" y="318.49" width="337" height="104"/><path class="cls-2" d="M541.4,713.71H526.3V682.87H498v30.84H482.85V642.26H498v28h28.3v-28h15.1Z" transform="translate(-443.5 -307.5)"/><path class="cls-2" d="M587,713.71H571.85V654.87h-19.4V642.26h54v12.61H587Z" transform="translate(-443.5 -307.5)"/><path class="cls-2" d="M647.65,713.71l-17.2-56.06H630q.93,17.11.93,22.82v33.23H617.4V642.26H638l16.91,54.64h.29l17.94-54.64h20.62v71.45H679.66V679.89q0-2.4.07-5.52t.66-16.62H680l-18.42,56Z" transform="translate(-443.5 -307.5)"/><path class="cls-2" d="M711.77,713.71V642.26h15.15V701.2h29v12.51Z" transform="translate(-443.5 -307.5)"/><path class="cls-1" d="M659.87,580.62a85.78,85.78,0,0,1-10.74,4,101.17,101.17,0,0,0,9.94-10.33l-1.9-15a89.89,89.89,0,0,1-27.34,26.73V545.21A85.9,85.9,0,0,1,656.11,551l-1.4-11.08a96.4,96.4,0,0,0-24.87-4.67V506.82H674a107.23,107.23,0,0,1-3.7,23.53l8.76,7.21a117.06,117.06,0,0,0,5.42-30.75H710.8a85.83,85.83,0,0,1-15.29,44.24l7.68,6.33a96.06,96.06,0,0,0-7.29-120.18l.12-.12-3.54-3.52a95.59,95.59,0,0,0-57.61-27.45l-.48-.06c-1.33-.13-2.66-.23-4-.3l-.9-.06c-.56,0-1.12,0-1.68,0-2.16-.17-4.38-.29-6.67-.32a5.06,5.06,0,0,0-2,.41l-.35,0c-1.34.08-2.67.17-4,.3l-.48.06a95.59,95.59,0,0,0-57.61,27.45l-3.54,3.52.12.12a96.11,96.11,0,0,0,0,129.29l-.12.12,3.54,3.53a95.6,95.6,0,0,0,57.61,27.44l.48.06c1.33.13,2.66.23,4,.31l.35,0a5.21,5.21,0,0,0,1.91.4h.06c2.29,0,4.51-.15,6.67-.32.56,0,1.12,0,1.68,0l.9-.06c1.34-.08,2.67-.17,4-.31l.48-.06a95.57,95.57,0,0,0,26.31-6.65Zm50.93-83.73H684.53a115.8,115.8,0,0,0-9.8-42.34,96.69,96.69,0,0,0,14-10.43A86,86,0,0,1,710.8,496.89Zm-29.13-59.76a86.79,86.79,0,0,1-11.4,8.49,103.55,103.55,0,0,0-21.14-26.55A86.27,86.27,0,0,1,681.67,437.13Zm-51.83-19.5a91,91,0,0,1,31.22,33,85.77,85.77,0,0,1-31.22,7.88Zm0,50.83a95.67,95.67,0,0,0,35.65-8.92A105.4,105.4,0,0,1,674,496.89h-44.2ZM600,419.09a103.35,103.35,0,0,0-21.13,26.53,86.6,86.6,0,0,1-11.38-8.48A86.24,86.24,0,0,1,600,419.09Zm-39.59,25a96.44,96.44,0,0,0,14,10.41,115.84,115.84,0,0,0-9.77,42.36H538.4A86,86,0,0,1,560.45,444.12Zm-22.05,62.7h26.27a115.84,115.84,0,0,0,9.77,42.36,96.67,96.67,0,0,0-14,10.41A86,86,0,0,1,538.4,506.82Zm29.13,59.76a86.69,86.69,0,0,1,11.38-8.48A103.4,103.4,0,0,0,600,584.63,86.33,86.33,0,0,1,567.53,566.58Zm51.83,19.5a90.82,90.82,0,0,1-31.24-33,85.82,85.82,0,0,1,31.24-7.89Zm0-50.84a95.73,95.73,0,0,0-35.67,8.93,105.45,105.45,0,0,1-8.53-37.35h44.2Zm0-38.36h-44.2a105.43,105.43,0,0,1,8.53-37.35,95.66,95.66,0,0,0,35.67,8.93Zm0-38.38a85.84,85.84,0,0,1-31.24-7.89,90.81,90.81,0,0,1,31.24-33Z" transform="translate(-443.5 -307.5)"/><polygon class="cls-1" points="265.7 263.42 216.7 223.09 224.69 286.05 239.12 278.08 252.59 302.5 264.74 295.8 251.27 271.38 265.7 263.42"/></svg>