<?xml version="1.0" encoding="utf-8"?>
<!-- Generator: Adobe Illustrator 22.0.1, SVG Export Plug-In . SVG Version: 6.00 Build 0)  -->
<svg version="1.1" id="Ebene_1" xmlns="http://www.w3.org/2000/svg" xmlns:xlink="http://www.w3.org/1999/xlink" x="0px" y="0px"
	 viewBox="0 0 64 64" style="enable-background:new 0 0 64 64;" xml:space="preserve">
<style type="text/css">
	.st-zoom-0{fill:#FFFFFF;}
</style>
<title>Zoom In</title>
<desc>A line styled icon from Orion Icon Library.</desc>
<g>
	<path class="st-zoom-0" d="M62.7,61.3L41.3,39.9c3.8-4.1,6.1-9.6,6.1-15.7C47.4,11.4,37,1,24.2,1C11.4,1,1,11.4,1,24.2
		C1,37,11.4,47.4,24.2,47.4c6,0,11.5-2.3,15.7-6.1l21.4,21.4c0.2,0.2,0.5,0.3,0.7,0.3s0.5-0.1,0.7-0.3
		C63.1,62.3,63.1,61.7,62.7,61.3z M3,24.2C3,12.5,12.5,3,24.2,3c11.7,0,21.2,9.5,21.2,21.2c0,11.7-9.5,21.2-21.2,21.2
		C12.5,45.4,3,35.9,3,24.2z"/>
	<path class="st-zoom-0" d="M33.8,23.2h-8.6v-8.7c0-0.6-0.4-1-1-1s-1,0.4-1,1v8.7h-8.7c-0.6,0-1,0.4-1,1s0.4,1,1,1h8.7v8.6
		c0,0.6,0.4,1,1,1s1-0.4,1-1v-8.6h8.6c0.6,0,1-0.4,1-1S34.4,23.2,33.8,23.2z"/>
</g>
</svg>
