<svg xmlns="http://www.w3.org/2000/svg" viewBox="0 0 400 400"><defs><style>.cls-1{fill:#fff;}</style></defs><title>business club stacked white 400 px</title><g id="stacked_whiet_400px" data-name="stacked whiet 400px"><g id="logo-2" data-name="logo"><path class="cls-1" d="M388.67,205.28c-1.94-5,1.18-13.54-8.32-21.11s-26.52-13.28-37.11-21.93a60.55,60.55,0,0,1-20.89-36.57c-.62-4.12,2-3.7,2.94,1s5.64,17.93,12.5,25.71c3.51,4,9.84,6.58,10.18,1.22s3-7.74,3.41-10.15.33-1,2.3.77,5.22,4,12.11,6.26,14.3,6.26,15.94,11.19,4.13,4,4.26-2.94c.2-11-5.89-30-14.13-35-3.93-2.4-1.84-4.26,1-2.93s6.11,2.42,9.06,2.29,5.25-2.58,1.44-5.33S377.58,110,378.14,104s-1.71-16.62-9.24-22.44c-4.78-3.67-10.24-9.47-8.59-13.77,1.92-5.66,2.63-26.87-4-32.07-1.09.69-2.39,14.65-5.55,19.09C342.6,66.32,330,74.24,321.89,94.14V12.06H78.46V94.14C70.33,74.25,57.75,66.32,49.57,54.76c-3.15-4.44-4.45-18.4-5.54-19.09-6.62,5.2-5.92,26.41-4,32.07,1.65,4.3-3.82,10.1-8.6,13.77-7.53,5.82-9.79,16.42-9.23,22.44S20.82,115,17,117.73s-1.52,5.25,1.45,5.33,6.21-1,9-2.29,4.93.53,1,2.93c-8.25,5.06-14.33,24-14.13,35,.13,6.89,2.64,7.86,4.26,2.94s9.06-8.88,15.94-11.19,10.15-4.5,12.11-6.26,1.85-3.18,2.3-.77,3.08,4.8,3.41,10.15,6.67,2.73,10.18-1.22c6.86-7.78,11.52-21,12.5-25.71s3.56-5.12,2.94-1a60.65,60.65,0,0,1-20.89,36.57C46.52,170.89,29.48,176.61,20,184.17s-6.38,16.08-8.32,21.11c-1.37,3.49-2,10.71-.17,11.05a21.86,21.86,0,0,0,10.58-1.82c2.75-1.48,5.07-.29,2.78,2.66s-7.32,9.54-7.73,19.54c-.28,6.67,3.47,16.93,5.95,19.53,1.24-3.54,9.94-10.06,15.6-10.56,6.89-.62,12.23-9.11,14-16.79,5.24,23.64,49.76,47.92,75.83,20,3.56,1.86,7.24,3.71,11.17,5.54A400.12,400.12,0,0,0,199,276.08l1.18.31,1.18-.31a400.12,400.12,0,0,0,59.32-21.69c3.93-1.83,7.62-3.68,11.17-5.54,26.08,28,70.6,3.68,75.83-20,1.76,7.68,7.1,16.17,14,16.79,5.66.5,14.35,7,15.6,10.56,2.47-2.6,6.22-12.86,5.95-19.53a33.43,33.43,0,0,0-7.74-19.54c-2.29-2.95,0-4.14,2.79-2.66a21.82,21.82,0,0,0,10.57,1.82C390.64,216,390,208.77,388.67,205.28ZM334.88,82.55s2-4.38,2.37-4.78c-2.14,27.2,2.29,41.09,22.58,50.65,12.81,6,15.83,13.66,18.5,23.78-7.66-16.12-18.13-15.75-33.32-27.86C328.91,111.54,334.88,82.55,334.88,82.55ZM55.33,124.34C40.15,136.45,29.68,136.08,22,152.2c2.67-10.12,5.7-17.75,18.51-23.78C60.81,118.86,65.23,105,63.1,77.77c.35.4,2.37,4.78,2.37,4.78S71.44,111.54,55.33,124.34ZM14.91,211.2s2.6-15,20.3-23.74c14.38-7.09,32.13-24.39,32.13-24.39S63,178.43,33.43,192.28C24.5,196.46,14.91,211.2,14.91,211.2Zm19.42,15.64c-8.31,7.53-10.84,19.68-10.84,19.68s-3.68-14.06,11.82-25.69c4.37-3.28,10.6-8.27,14-12.7A151.52,151.52,0,0,0,62.08,188.6s1.71,2.78-8,19C49,216.08,41.8,220.07,34.33,226.84Zm44.5,21.95c-20.75-13.32-19.45-32-19.45-32S64,238.9,83.74,249c15.31,7.74,28.91,3.8,37.45.66C113.61,256.6,95.26,259.36,78.83,248.79ZM80.76,236c-27-21.29-12.83-56-3.66-73.88.47-.94.92-1.89,1.36-2.85v34.26c0,18,14.62,35.41,43.38,51.73C107.07,244.09,100.65,251.65,80.76,236Zm119.41,30.9c-32.43-8.79-112.5-38.1-112.5-73.37V21.26h225V193.49C312.68,228.76,232.61,258.07,200.17,266.86Zm121.72-73.37V159.24c.43,1,.88,1.91,1.36,2.84,9.17,17.88,23.31,52.59-3.67,73.88-19.88,15.69-26.3,8.14-41.07,9.26C307.27,228.9,321.89,211.54,321.89,193.49Zm-.37,55.3c-16.43,10.57-34.78,7.81-42.37.83,8.55,3.14,22.14,7.08,37.46-.66C336.4,238.9,341,216.8,341,216.8S342.27,235.47,321.52,248.79Zm55.33-2.27s-2.52-12.15-10.83-19.68c-7.48-6.77-14.63-10.76-19.71-19.22-9.76-16.24-8-19-8-19A150.24,150.24,0,0,0,351,208.13c3.42,4.43,9.65,9.42,14,12.7C380.53,232.46,376.85,246.52,376.85,246.52Zm-9.93-54.24C337.35,178.43,333,163.07,333,163.07s17.75,17.3,32.13,24.39c17.71,8.74,20.3,23.74,20.3,23.74S375.85,196.46,366.92,192.28ZM181.08,157.2c0,6.5-2,11.42-6.18,15s-10.17,5.49-17.73,5.49H131.6V138.33h26.92c6.95.12,12.54,2,16.6,5.55A16.8,16.8,0,0,1,181.08,157.2ZM152.39,130H131.6V93h20.23c16.69.2,24.8,6.26,24.8,18.53,0,6.4-1.88,10.93-5.76,13.87C166.84,128.43,160.62,130,152.39,130ZM306.54,27.4H93.81V193.49c0,30.41,75.88,58.43,105.12,66.66l1.25.35,1.24-.35c29.24-8.22,105.12-36.24,105.12-66.66ZM180.64,178.34c-5.76,5.13-13.79,7.74-23.87,7.74H123.24V84.62h27.82c10.9,0,19.34,2.31,25.09,6.86,5.91,4.68,8.9,11.51,8.9,20.3,0,6.35-1.66,11.73-4.94,16a21.17,21.17,0,0,1-6.55,5.61,26.62,26.62,0,0,1,9.15,6.63,24.74,24.74,0,0,1,6.73,17C189.44,166,186.48,173.12,180.64,178.34Zm34.26-16.49a29.2,29.2,0,0,0,10.21,12.7,26.41,26.41,0,0,0,15.17,4.5c8.61,0,15.37-2.1,20.1-6.25s7.54-10.51,8.4-19l.22-2.14h8.36l-.24,2.61c-1,10.53-4.71,18.77-11.08,24.49s-15,8.62-25.76,8.62a34.89,34.89,0,0,1-19.54-5.61A36.7,36.7,0,0,1,207.56,166a55.64,55.64,0,0,1-4.67-22.93V128.11a56.57,56.57,0,0,1,4.52-23.05A36.71,36.71,0,0,1,220.6,89a34.87,34.87,0,0,1,19.68-5.71c10.64,0,19.28,2.89,25.69,8.57s10.16,13.92,11.15,24.41l.24,2.61H269l-.25-2.12c-.94-8.26-3.81-14.58-8.51-18.77s-11.43-6.34-20-6.34c-8.72,0-15.55,3.19-20.9,9.75s-8.13,15.69-8.13,27v14.21A47.88,47.88,0,0,0,214.9,161.85Z"/></g><path class="cls-1" d="M103.91,316.39l3.13,4.47a12.65,12.65,0,0,1-7.9,2.9c-7.56,0-13.26-5.44-13.26-12.17s5.7-12.2,13.26-12.2a12.46,12.46,0,0,1,7.9,2.94l-3.13,4.43a7.86,7.86,0,0,0-4.77-1.63c-4,0-7,2.83-7,6.46s3,6.47,7,6.47A8.17,8.17,0,0,0,103.91,316.39Zm29.23-4.8a12.47,12.47,0,0,1-12.53,12.17c-6.74,0-12.57-5.44-12.57-12.17a12.56,12.56,0,0,1,25.1,0Zm-6.13,0a6.4,6.4,0,1,0-6.4,6.37A6.41,6.41,0,0,0,127,311.59Zm35.85-11.66v23.33H156.5V310.63l-5.67,7.09-1.39,1.77L148,317.72l-5.67-7.09v12.63H136V299.93h5.66l7.77,10.3,7.77-10.3Zm22.89,8.26c0,4.47-3.46,8.3-9.1,8.3h-3.2v6.77h-6.4V299.93h9.6C182.29,299.93,185.75,303.73,185.75,308.19Zm-5.76,0c0-1.46-.84-2.86-3.57-2.86h-3v5.76h3C179.15,311.09,180,309.66,180,308.19Zm18.34,5.54-1.8-5.14-1.8,5.14-1.9,5.39-1.43,4.14h-7.1l8.8-23.33h6.83l8.83,23.33h-7.1l-1.43-4.14Zm18.4-13.8,8.1,12.36V299.93h6.4v23.33h-5.66l-8.1-12.4v12.4h-6.4V299.93Zm25.48,0v23.33h-6.37V299.93Zm45.59,5.4H281v17.93H274.6V305.33h-6.83v-5.4h20Zm26.67,6.26a12.47,12.47,0,0,1-12.53,12.17c-6.73,0-12.57-5.44-12.57-12.17s5.84-12.2,12.57-12.2A12.5,12.5,0,0,1,314.47,311.59Zm-6.13,0a6.4,6.4,0,1,0-6.4,6.37A6.41,6.41,0,0,0,308.34,311.59Zm-45.38.32a18.42,18.42,0,0,0-6.43-3.09,17.52,17.52,0,0,1-3.19-1.5,1.43,1.43,0,0,1-.66-1.24,1.75,1.75,0,0,1,.67-1.4,3,3,0,0,1,2-.61,3.76,3.76,0,0,1,2.41.63,2.53,2.53,0,0,1,.73,2v.54h6.28l.19-.54v-.08a6.71,6.71,0,0,0-2.61-5.81,12.59,12.59,0,0,0-13.57-.07,6.28,6.28,0,0,0-2.72,5.28,6.05,6.05,0,0,0,2.36,5.11,23.46,23.46,0,0,0,6.73,3.15,10.47,10.47,0,0,1,2.86,1.35,1.85,1.85,0,0,1,.64,1.54,1.68,1.68,0,0,1-.65,1.38,3.64,3.64,0,0,1-2.25.56,4.3,4.3,0,0,1-2.78-.74,3.24,3.24,0,0,1-.83-2.54v-.54h-6.3l-.19.54v.08c-.06,2.91.94,5.08,3,6.45a12.44,12.44,0,0,0,7.14,2,11.48,11.48,0,0,0,6.83-1.87,6.29,6.29,0,0,0,2.67-5.35A6.5,6.5,0,0,0,263,311.91Z"/><path class="cls-1" d="M37,364.58a8.26,8.26,0,0,0,2.51-2.16,9.81,9.81,0,0,0,1.9-6.14A9.38,9.38,0,0,0,38,348.49c-2.2-1.75-5.45-2.64-9.63-2.64H17.67V384.8H30.54c3.87,0,7-1,9.16-3a10.44,10.44,0,0,0,3.38-8.16,9.51,9.51,0,0,0-2.58-6.55A10.18,10.18,0,0,0,37,364.58Zm-6.3,17H20.88V366.47H31.21a9.66,9.66,0,0,1,6.38,2.14,6.45,6.45,0,0,1,2.28,5.11,7.17,7.17,0,0,1-2.37,5.77A10.14,10.14,0,0,1,30.69,381.59ZM36,361.5c-1.54,1.17-3.93,1.77-7.09,1.77h-8V349.06h7.76c6.41.08,9.53,2.41,9.53,7.12C38.17,358.63,37.44,360.37,36,361.5Zm36.29-15.65h3.21v26.06c0,4.16-1.25,7.47-3.7,9.84s-5.77,3.56-9.89,3.56-7.45-1.2-9.89-3.56-3.7-5.64-3.72-9.74V345.85h3.21v26a9.89,9.89,0,0,0,2.82,7.5,10.35,10.35,0,0,0,7.58,2.74,10.28,10.28,0,0,0,7.57-2.74,10,10,0,0,0,2.81-7.53Zm36.13,29.09a9.07,9.07,0,0,1-1.76,5.5,11,11,0,0,1-4.88,3.63,18.16,18.16,0,0,1-6.87,1.24,19.74,19.74,0,0,1-7.59-1.4,10.72,10.72,0,0,1-7-10.5v-.92h3.2v.92a7.37,7.37,0,0,0,3.05,6.35,13.73,13.73,0,0,0,8.35,2.34,12.75,12.75,0,0,0,7.5-2.06,5.88,5.88,0,0,0,2.78-5.05,6.06,6.06,0,0,0-1-3.5,8.5,8.5,0,0,0-3.16-2.61,36.49,36.49,0,0,0-7-2.51,34.59,34.59,0,0,1-7.44-2.77,10.57,10.57,0,0,1-3.86-3.44,9,9,0,0,1-1.26-4.82,8.68,8.68,0,0,1,3.79-7.3,15.59,15.59,0,0,1,9.44-2.7,15.35,15.35,0,0,1,6.82,1.49,11.32,11.32,0,0,1,4.77,4.24,11.5,11.5,0,0,1,1.69,6.15v.92h-3.21v-.92A7.8,7.8,0,0,0,102,351a10.65,10.65,0,0,0-7.32-2.49,12.43,12.43,0,0,0-7.38,2,5.63,5.63,0,0,0-2.64,4.72,5.56,5.56,0,0,0,2.27,4.66c1.64,1.28,4.45,2.43,8.34,3.44,4.18,1.09,7.18,2.33,9.16,3.79A9.21,9.21,0,0,1,108.37,374.94Zm5.91-29.09h3.2V384.8h-3.2Zm37.43,0h3.21V384.8h-2.77l-22.57-32.74V384.8h-3.23V345.85h2.8l22.56,32.68Zm11,0h24.42v3.21H166v14.13h18.61v3.21H166v15.19h21.21v3.21H162.76Zm54.67,29.09a9.07,9.07,0,0,1-1.76,5.5,11,11,0,0,1-4.88,3.63,18.16,18.16,0,0,1-6.87,1.24,19.74,19.74,0,0,1-7.59-1.4,10.72,10.72,0,0,1-7-10.5v-.92h3.2v.92a7.37,7.37,0,0,0,3,6.35,13.73,13.73,0,0,0,8.35,2.34,12.75,12.75,0,0,0,7.5-2.06A5.88,5.88,0,0,0,214.2,375a6.06,6.06,0,0,0-1-3.5,8.5,8.5,0,0,0-3.16-2.61,36.49,36.49,0,0,0-7-2.51,34.59,34.59,0,0,1-7.44-2.77,10.57,10.57,0,0,1-3.86-3.44,9,9,0,0,1-1.26-4.82,8.68,8.68,0,0,1,3.79-7.3,15.59,15.59,0,0,1,9.44-2.7,15.35,15.35,0,0,1,6.82,1.49,11.32,11.32,0,0,1,4.77,4.24,11.5,11.5,0,0,1,1.69,6.15v.92h-3.21v-.92a7.8,7.8,0,0,0-2.75-6.18,10.65,10.65,0,0,0-7.32-2.49,12.43,12.43,0,0,0-7.38,2,5.63,5.63,0,0,0-2.64,4.72,5.56,5.56,0,0,0,2.27,4.66c1.64,1.28,4.45,2.43,8.34,3.44,4.18,1.09,7.18,2.33,9.16,3.79A9.21,9.21,0,0,1,217.43,374.94Zm30.35,0a9.07,9.07,0,0,1-1.76,5.5,11,11,0,0,1-4.88,3.63,18.16,18.16,0,0,1-6.87,1.24,19.7,19.7,0,0,1-7.59-1.4,10.74,10.74,0,0,1-7-10.5v-.92h3.21v.92a7.37,7.37,0,0,0,3,6.35,13.73,13.73,0,0,0,8.35,2.34,12.75,12.75,0,0,0,7.5-2.06,5.87,5.87,0,0,0,2.77-5.05,6.06,6.06,0,0,0-.95-3.5,8.5,8.5,0,0,0-3.16-2.61,36.49,36.49,0,0,0-7-2.51A34.59,34.59,0,0,1,226,363.6a10.57,10.57,0,0,1-3.86-3.44,9,9,0,0,1-1.26-4.82,8.68,8.68,0,0,1,3.79-7.3,15.57,15.57,0,0,1,9.44-2.7,15.27,15.27,0,0,1,6.81,1.49,11.29,11.29,0,0,1,4.78,4.24,11.5,11.5,0,0,1,1.69,6.15v.92h-3.21v-.92a7.83,7.83,0,0,0-2.75-6.18,10.66,10.66,0,0,0-7.32-2.49,12.43,12.43,0,0,0-7.38,2,5.63,5.63,0,0,0-2.64,4.72,5.56,5.56,0,0,0,2.27,4.66c1.64,1.28,4.45,2.43,8.34,3.44,4.18,1.09,7.18,2.33,9.16,3.79A9.21,9.21,0,0,1,247.78,374.94Zm18.64-12.29v5.46a18.35,18.35,0,0,0,1.4,7.39,11.24,11.24,0,0,0,3.92,4.88,10.15,10.15,0,0,0,5.82,1.72c3.3,0,5.9-.8,7.72-2.39s2.89-4,3.22-7.28l.08-.83h3.21l-.09,1c-.38,4-1.81,7.21-4.25,9.41s-5.77,3.3-9.89,3.3a13.37,13.37,0,0,1-7.5-2.15,14.07,14.07,0,0,1-5.06-6.07,21.21,21.21,0,0,1-1.79-8.8v-5.74a21.77,21.77,0,0,1,1.73-8.85,14.07,14.07,0,0,1,5.06-6.16,13.36,13.36,0,0,1,7.56-2.2c4.08,0,7.4,1.11,9.86,3.29s3.9,5.35,4.28,9.37l.09,1h-3.2l-.09-.82a11,11,0,0,0-3.27-7.21c-1.81-1.61-4.39-2.43-7.67-2.43a9.75,9.75,0,0,0-8,3.75C267.47,354.83,266.42,358.32,266.42,362.65Zm34.75,18.94h19.05v3.21H297.94V345.85h3.23Zm45.43-35.74h3.2v26.06c0,4.16-1.24,7.47-3.69,9.84s-5.77,3.56-9.89,3.56-7.45-1.2-9.89-3.56-3.71-5.64-3.72-9.74V345.85h3.2v26a9.93,9.93,0,0,0,2.82,7.5,10.39,10.39,0,0,0,7.59,2.74,10.28,10.28,0,0,0,7.57-2.74,10,10,0,0,0,2.81-7.53Zm33.49,21.27a10.09,10.09,0,0,0-3.51-2.54,8.18,8.18,0,0,0,2.52-2.16,9.81,9.81,0,0,0,1.9-6.14,9.38,9.38,0,0,0-3.42-7.79c-2.21-1.75-5.45-2.64-9.64-2.64H357.26V384.8h12.88c3.86,0,6.95-1,9.16-3a10.44,10.44,0,0,0,3.38-8.16A9.48,9.48,0,0,0,380.09,367.12Zm-9.8,14.47h-9.82V366.47h10.34a9.64,9.64,0,0,1,6.37,2.14,6.43,6.43,0,0,1,2.29,5.11,7.18,7.18,0,0,1-2.38,5.77A10.13,10.13,0,0,1,370.29,381.59Zm5.26-20.09c-1.55,1.17-3.93,1.77-7.1,1.77h-8V349.06h7.77c6.41.08,9.52,2.41,9.52,7.12C377.76,358.63,377,360.37,375.55,361.5Z"/></g></svg>