<?xml version="1.0" encoding="utf-8"?>
<!-- Generator: Adobe Illustrator 22.0.1, SVG Export Plug-In . SVG Version: 6.00 Build 0)  -->
<svg version="1.1" id="Ebene_1" xmlns="http://www.w3.org/2000/svg" xmlns:xlink="http://www.w3.org/1999/xlink" x="0px" y="0px"
	 viewBox="0 0 3368.3 418.1" style="enable-background:new 0 0 3368.3 418.1;" xml:space="preserve">
<style type="text/css">
	.st0{fill:#FFFFFF;}
</style>
<g id="stacked">
</g>
<g id="icon_6_">
</g>
<g id="long">
	<path class="st0" d="M346.9,311.9l46.3,42.7l-3.7,4.5c-12.5,15.3-28.3,27.1-46.8,35.1c-18.4,8-39.1,12-61.6,12
		c-26.5,0-50.8-5.9-72.3-17.4c-21.6-11.6-38.8-27.9-51.1-48.5c-12.3-20.6-18.6-44.1-18.6-70c0-18.8,3.3-36.3,9.8-52.4h-38.8
		l-22.3,53.8H14.7l96.3-216h13.4L33.6,259.3h45.9l22.3-53.8h52.9h14.1c-0.2,0.3-0.4,0.7-0.6,1c-2.2,3.7-4.1,7.4-5.9,11.3
		c-7.3,15.9-10.9,33.4-10.9,52.4c0,23.6,5.7,45.1,16.9,63.7c11.2,18.7,26.8,33.4,46.4,44l0,0c19.7,10.5,42,15.9,66.5,15.9
		c20.8,0,39.8-3.7,56.7-10.9c14.8-6.4,27.7-15.5,38.4-27.2l-28.4-26.2c-17.3,18-38.7,27.2-63.5,27.2c-16.6,0-31.6-3.7-44.6-11
		c-13.1-7.3-23.5-17.7-30.9-30.9c-7.3-13-11-28-11-44.6s3.7-31.6,11-44.6c1.6-2.7,3.2-5.3,5-7.8c3.2-4.5,6.9-8.6,10.9-12.3
		c4.5-4.1,9.5-7.7,14.9-10.8c7.3-4.1,15.2-7,23.6-8.8c4.1-0.9,8.3-1.5,12.7-1.8c2.7-0.2,5.5-0.3,8.4-0.3c24.8,0,46.1,9.1,63.4,26.9
		l28.4-26.2c-10.5-11.4-23.4-20.5-38.1-26.9c-16.7-7.3-35.7-10.9-56.5-10.9c-7.4,0-14.6,0.5-21.6,1.5c-4.2,0.5-8.4,1.3-12.4,2.3
		l-5.1-11.4l-53-118.4h-3.9h-45.5h-13.4l5.5-12.3h65.4l57.3,128.1c8.7-1.4,17.6-2.1,26.8-2.1c22.5,0,43.1,4.1,61.4,12
		c18.4,8,34.1,19.7,46.6,34.7l3.8,4.5l-46.3,42.7l-4.1-4.8c-7.9-9.1-16.8-16-26.5-20.5c-9.6-4.5-20.4-6.8-32-6.8c-1,0-2,0-3,0.1
		c-4.5,0.2-8.8,0.5-12.9,1.3c-8.2,1.5-15.9,4.1-22.7,8c-5.5,3-10.3,6.7-14.6,10.9c-3.3,3.3-6.3,6.9-8.8,10.8
		c-0.9,1.4-1.8,2.9-2.7,4.4c-6.3,11.2-9.5,24.2-9.5,38.6c0,14.4,3.2,27.3,9.5,38.6c6.3,11.1,15,19.9,26.2,26.2s24.2,9.5,38.6,9.5
		c11.6,0,22.3-2.3,32-6.9c9.7-4.5,18.6-11.6,26.5-20.8L346.9,311.9z M115.3,173.7l49-118.3l0,0l40.7,98.4l4.8,11.5
		c-4.4,2.6-8.6,5.5-12.5,8.5h-18.8L115.3,173.7L115.3,173.7z M164.3,87.5l-30.6,73.8h59.5h1.7l-0.4-0.9L164.3,87.5z M2176.2,242.4
		h-84l-18.1,40.3h-16.6l68.9-150.7h15.7l68.9,150.7h-16.8L2176.2,242.4z M2170.4,229.5l-36.2-80.9l-36.2,80.9H2170.4z M2349.1,131.9
		v150.7H2336l-96.9-122.3v122.3h-15.9V131.9h13.1l97.1,122.3V131.9H2349.1z M2490.8,207.3h15.3v57.5c-7,6.2-15.4,10.9-25,14.2
		c-9.6,3.3-19.7,5-30.4,5c-15.1,0-28.6-3.3-40.7-9.9c-12.1-6.6-21.5-15.7-28.4-27.4c-6.9-11.7-10.3-24.8-10.3-39.3
		s3.4-27.6,10.3-39.3c6.9-11.7,16.4-20.8,28.4-27.4c12.1-6.6,25.7-9.9,40.9-9.9c11.5,0,22,1.8,31.6,5.5s17.7,9.1,24.3,16.3
		l-9.9,10.1c-11.9-11.8-27.1-17.7-45.4-17.7c-12.2,0-23.2,2.7-33,8.1c-9.8,5.4-17.5,12.8-23.1,22.4c-5.6,9.5-8.4,20.2-8.4,32
		c0,11.8,2.8,22.4,8.4,31.9c5.6,9.5,13.3,16.9,23,22.4c9.8,5.5,20.7,8.2,32.9,8.2c15.5,0,28.6-3.9,39.4-11.6L2490.8,207.3
		L2490.8,207.3z M2641.5,268.9v13.8h-106.6V131.9h103.3v13.8h-87.4v53.6h77.9v13.6h-77.9v56H2641.5z M2659.1,131.9h15.9v136.9h84.4
		v13.8h-100.3L2659.1,131.9L2659.1,131.9z M2853.1,274c-12-6.6-21.4-15.7-28.2-27.4c-6.8-11.7-10.2-24.8-10.2-39.3
		s3.4-27.6,10.2-39.3s16.3-20.8,28.3-27.4c12.1-6.6,25.5-9.9,40.5-9.9c11.2,0,21.5,1.9,31,5.6c9.5,3.7,17.5,9.2,24.1,16.4
		l-10.1,10.1c-11.8-11.9-26.6-17.9-44.6-17.9c-11.9,0-22.7,2.7-32.5,8.2s-17.4,12.9-22.9,22.4s-8.3,20.1-8.3,31.9s2.8,22.4,8.3,31.9
		s13.2,16.9,22.9,22.4c9.8,5.5,20.6,8.2,32.5,8.2c18.1,0,32.9-6,44.6-18.1l10.1,10.1c-6.6,7.2-14.7,12.7-24.2,16.5
		s-19.9,5.7-31.1,5.7C2878.6,283.9,2865.1,280.6,2853.1,274z M2966.2,131.9h15.9v136.9h84.4v13.8h-100.3L2966.2,131.9L2966.2,131.9z
		 M3087,267.1c-10.9-11.2-16.4-27.5-16.4-48.9v-86.3h15.9v85.7c0,17.5,3.9,30.6,11.8,39.2c7.9,8.6,19.3,12.9,34.2,12.9
		c15.1,0,26.6-4.3,34.4-12.9c7.9-8.6,11.8-21.7,11.8-39.2v-85.7h15.5v86.3c0,21.4-5.4,37.7-16.3,48.9c-10.8,11.2-26,16.8-45.5,16.8
		C3113.1,283.9,3097.9,278.3,3087,267.1z M3344,217.7c5.4,6.4,8.1,14.6,8.1,24.6c0,12.9-4.8,22.9-14.3,29.8
		c-9.5,7-23.6,10.4-42.3,10.4h-69.3V131.9h65c16.8,0,29.8,3.4,39.1,10.1c9.3,6.7,13.9,16.3,13.9,28.6c0,8.3-2,15.4-6.1,21.2
		s-9.7,10.2-16.9,13C3331,207.1,3338.7,211.3,3344,217.7z M3242.1,145.1v54.7h48c12.2,0,21.6-2.3,28.2-7c6.6-4.7,9.9-11.4,9.9-20.3
		c0-8.9-3.3-15.7-9.9-20.3c-6.6-4.7-16-7-28.2-7h-48V145.1z M3325.9,262.6c6.9-4.6,10.3-11.8,10.3-21.5c0-18.8-13.6-28.2-40.9-28.2
		h-53.2v56.6h53.2C3308.8,269.5,3319,267.2,3325.9,262.6z M1012.6,131.9v150.5h-41.1v-81.5L935,246.7l-9,11.4l-9.1-11.4l-36.6-45.8
		v81.5h-41.1V131.9h36.5l50.1,66.4l50.1-66.4H1012.6z M632.3,238.1l20.2,28.8c-15.1,11.6-31.6,18.7-51,18.7
		c-48.8,0-85.6-35-85.6-78.5s36.8-78.7,85.6-78.7c19.3,0,35.9,7.1,51,18.9L632.3,176c-9.2-6.9-19.6-10.5-30.7-10.5
		c-25.8,0-45.4,18.3-45.4,41.7c0,23.2,19.6,41.7,45.4,41.7C612.8,248.8,623.1,244.8,632.3,238.1z M820.9,207.1
		c0,43.4-37.4,78.5-80.8,78.5c-43.4,0-81.1-35-81.1-78.5s37.6-78.7,81.1-78.7C783.5,128.4,820.9,163.7,820.9,207.1z M781.3,207.1
		c0-22.8-18.5-41.3-41.3-41.3s-41.3,18.5-41.3,41.3s18.5,41.1,41.3,41.1S781.3,229.9,781.3,207.1z M1160.3,185.2
		c0,28.8-22.4,53.5-58.7,53.5H1081v43.6h-41.3V131.9h61.9C1137.9,131.9,1160.3,156.4,1160.3,185.2z M1123.1,185.2
		c0-9.5-5.4-18.5-23-18.5H1081v37.2h19.1C1117.7,203.9,1123.1,194.7,1123.1,185.2z M1241.4,220.9l-11.6-33.1l-11.6,33.1l-12.2,34.8
		l-9.2,26.7H1151l56.8-150.5h44.1l57,150.5h-45.8l-9.2-26.7L1241.4,220.9z M1360.1,131.9l52.2,79.8v-79.8h41.3v150.5h-36.5l-52.2-80
		v80h-41.3V131.9H1360.1z M1524.4,131.9v150.5h-41.1V131.9H1524.4z M1675,241.7c-3.2,42.6-46,46.4-70.7,43.9
		c-23-2.4-44.9-12.5-57.4-21.7l18.9-31.2c17,19.3,61.3,26,64.7,9.5c5.8-27.1-79.8-12.7-72.5-72.7c2.8-22.4,19.1-43.6,65.1-41.1
		c29.2,1.7,43.6,12,46.9,14.6l-14.6,32.2c-13.8-13.1-52.2-20.6-55.9-3C1594.6,195.5,1678.8,187.6,1675,241.7z M1818.6,166.7h-44.1
		v115.7h-41.1V166.7h-44.1v-34.8h129.2L1818.6,166.7L1818.6,166.7z M1990.6,207.1c0,43.4-37.4,78.5-80.8,78.5
		c-43.4,0-81.1-35-81.1-78.5s37.6-78.7,81.1-78.7C1953.2,128.4,1990.6,163.7,1990.6,207.1z M1951,207.1c0-22.8-18.5-41.3-41.3-41.3
		s-41.3,18.5-41.3,41.3s18.5,41.1,41.3,41.1S1951,229.9,1951,207.1z"/>
</g>
</svg>
