<?xml version="1.0" encoding="utf-8"?>
<!-- Generator: Adobe Illustrator 22.0.1, SVG Export Plug-In . SVG Version: 6.00 Build 0)  -->
<svg version="1.1" id="Layer_1" xmlns="http://www.w3.org/2000/svg" xmlns:xlink="http://www.w3.org/1999/xlink" x="0px" y="0px"
	 viewBox="0 0 54.5 30.7" style="enable-background:new 0 0 54.5 30.7;" xml:space="preserve">
<style type="text/css">
	.st0{fill:none;stroke:#4D4D4D;stroke-width:3;}
	.st1{fill:#4D4D4D;}
</style>
<g id="Group_1045" transform="translate(1049.57 4852)">
	<path id="Path_1120" class="st0" d="M-1049.6-4836.7h53.1"/>
	<g id="Group_887" transform="translate(834.313 1277)">
		<path id="Path_1010" class="st1" d="M-1853.9-6099c-0.4-0.7-0.2-1.7,0.5-2.1l19.7-12.5l-19.7-12.5c-0.7-0.5-0.9-1.4-0.5-2.1
			c0.5-0.7,1.4-0.9,2.1-0.5l21.6,13.8c0.4,0.3,0.7,0.8,0.7,1.3c0,0.5-0.3,1-0.7,1.3l-21.6,13.8c-0.2,0.2-0.5,0.2-0.8,0.2
			C-1853.1-6098.3-1853.6-6098.6-1853.9-6099z"/>
	</g>
</g>
</svg>
