<?xml version="1.0" encoding="utf-8"?>
<!-- Generator: Adobe Illustrator 21.1.0, SVG Export Plug-In . SVG Version: 6.00 Build 0)  -->
<svg version="1.1" id="Ebene_1" xmlns="http://www.w3.org/2000/svg" xmlns:xlink="http://www.w3.org/1999/xlink" x="0px" y="0px"
	 viewBox="0 0 195.8 47.5" style="enable-background:new 0 0 195.8 47.5;" xml:space="preserve">
<style type="text/css">
	.st0{fill:#FFFFFF;}
</style>
<g>
	<path class="st0" d="M40.3,46.2c0.1,0.1,0.1,0.3,0.1,0.5c0,0.5-0.4,0.8-1,0.8h-6.7c-0.6,0-1.1-0.3-1.3-0.9l-3-9.3H12.1l-3,9.3
		c-0.2,0.6-0.6,0.9-1.3,0.9H1c-0.9,0-1.2-0.4-0.9-1.3L15.4,0.9C15.7,0.3,16.1,0,16.7,0h7c0.6,0,1.1,0.3,1.3,0.9L40.3,46.2z
		 M25.9,29.7l-1.4-4.4c-0.6-1.9-1.6-5.1-2.8-9.6l-1.5-5.3c-0.4,1.4-0.7,2.5-1,3.6c-1.6,5.8-2.7,9.6-3.2,11.4l-1.4,4.4L25.9,29.7
		L25.9,29.7z"/>
	<path class="st0" d="M74.6,0c0.9,0,1.2,0.4,0.9,1.3L60.7,46.6c-0.2,0.6-0.6,0.9-1.3,0.9h-6.5c-0.6,0-1.1-0.3-1.3-0.9L36.8,1.3
		c-0.1-0.1-0.1-0.3-0.1-0.5c0-0.5,0.4-0.8,1-0.8h6.5c0.6,0,1.1,0.3,1.3,0.9l6,18c0.6,1.9,1.7,5.8,3.2,11.4l1.5,5.8l1.5-5.8
		c1.5-5.7,2.6-9.5,3.2-11.4l5.9-18C67.1,0.3,67.6,0,68.2,0H74.6z"/>
	<path class="st0" d="M118.4,0c0.8,0,1.2,0.4,1.2,1.2v45.2c0,0.8-0.4,1.2-1.2,1.2h-6.7c-0.6,0-1-0.3-1.4-0.8L97.9,27.3
		c-1.2-1.8-2.9-4.8-5.2-8.9l-2.8-5c0.3,4.7,0.4,9.4,0.4,14v18.9c0,0.8-0.4,1.2-1.2,1.2h-6.4c-0.8,0-1.2-0.4-1.2-1.2V1.2
		C81.7,0.4,82,0,82.8,0h6.8c0.6,0,1,0.3,1.4,0.8l12.2,19.3c1,1.6,2.2,3.5,3.5,5.8s2.3,4,3,5.2l1.5,2.7c-0.3-6.1-0.4-10.7-0.4-13.8
		V1.2c0-0.8,0.4-1.2,1.2-1.2H118.4z"/>
	<path class="st0" d="M158,39.7c0.8,0,1.2,0.4,1.2,1.2v5.5c0,0.8-0.4,1.2-1.2,1.2h-22.6h-4.5c-0.8,0-1.2-0.4-1.2-1.2V1.2
		c0-0.8,0.4-1.2,1.2-1.2h7.7h18.7c0.8,0,1.2,0.4,1.2,1.2v5.5c0,0.8-0.4,1.2-1.2,1.2h-18.7v12h16.6c0.8,0,1.2,0.4,1.2,1.2v5.4
		c0,0.8-0.4,1.2-1.2,1.2h-16.6v12.1H158V39.7z"/>
	<path class="st0" d="M194.6,0c0.8,0,1.2,0.4,1.2,1.2v5.6c0,0.8-0.4,1.2-1.2,1.2h-10.5v38.5c0,0.8-0.4,1.2-1.2,1.2h-6.6
		c-0.8,0-1.2-0.4-1.2-1.2V7.9h-10.6c-0.8,0-1.2-0.4-1.2-1.2V1.2c0-0.8,0.4-1.2,1.2-1.2H194.6z"/>
</g>
</svg>
