<?xml version="1.0" encoding="utf-8"?>
<!-- Generator: Adobe Illustrator 21.1.0, SVG Export Plug-In . SVG Version: 6.00 Build 0)  -->
<svg version="1.1" id="Ebene_1" xmlns="http://www.w3.org/2000/svg" xmlns:xlink="http://www.w3.org/1999/xlink" x="0px" y="0px"
	 viewBox="0 0 154.5 57" style="enable-background:new 0 0 154.5 57;" xml:space="preserve">
<style type="text/css">
	.st0{fill:#FFFFFF;}
</style>
<g>
	<path class="st0" d="M0,45.2h3.2V12.8H0V1h19.7v4.9c1.2-1.5,2.7-2.9,4.6-4.1c2-1.2,4.1-1.8,6.6-1.8c4.9,0,8.6,1.8,11.1,5.5
		c2.5,3.6,3.7,8.8,3.7,15.6c0,6.7-1.2,11.9-3.7,15.6c-2.5,3.6-6.2,5.5-11.1,5.5c-2.4,0-4.6-0.6-6.5-1.8s-3.4-2.6-4.6-4.1v9.1h5V57H0
		V45.2z M27,28.1c0.7-0.7,1-1.9,1-3.5v-7.2c0-1.6-0.3-2.7-1-3.5c-0.7-0.7-1.7-1.1-3.1-1.1s-2.4,0.4-3.1,1.1c-0.7,0.7-1,1.9-1,3.5
		v7.2c0,1.6,0.3,2.7,1,3.5c0.7,0.7,1.7,1.1,3.1,1.1C25.3,29.2,26.3,28.9,27,28.1z"/>
	<path class="st0" d="M59.6,41l-9.5-28.2h-3V1h22.2v11.8h-3L68.9,24h0.7l5.3-23h13.2l5.3,23h0.7l2.5-11.2h-3V1h20.9v11.8h-3
		L102.3,41H84.8l-4-20h-0.7l-4,20H59.6z"/>
	<path class="st0" d="M122,36.7c-3.8-3.6-5.8-8.8-5.8-15.7s1.9-12.1,5.8-15.7c3.8-3.6,9.2-5.4,16-5.4c3.3,0,6.5,0.5,9.5,1.4
		s5.4,1.9,7.1,3.1v14.3h-12.4v-1.3c0-1.6-0.3-2.7-1-3.5c-0.7-0.7-1.7-1.1-3.2-1.1c-2.8,0-4.2,1.5-4.2,4.6v6.2c0,3.7,2.1,5.6,6.4,5.6
		c4,0,8.6-0.4,13.9-1.3v11.3c-1.6,0.7-3.9,1.4-6.9,1.9s-6,0.9-9.2,0.9C131.2,42,125.8,40.3,122,36.7z"/>
</g>
</svg>
