<?xml version="1.0" encoding="utf-8"?>
<!-- Generator: Adobe Illustrator 21.1.0, SVG Export Plug-In . SVG Version: 6.00 Build 0)  -->
<svg version="1.1" id="Ebene_1" xmlns="http://www.w3.org/2000/svg" xmlns:xlink="http://www.w3.org/1999/xlink" x="0px" y="0px"
	 viewBox="0 0 605.5 72" style="enable-background:new 0 0 605.5 72;" xml:space="preserve">
<style type="text/css">
	.st0{fill:#FFFFFF;}
</style>
<g>
	<path class="st0" d="M10,28.8l-9-1.6c1-3.6,2.7-6.3,5.2-8c2.5-1.7,6.1-2.6,11-2.6c4.4,0,7.7,0.5,9.8,1.6c2.2,1,3.7,2.4,4.6,4
		s1.3,4.6,1.3,8.8l-0.1,11.5c0,3.3,0.2,5.7,0.5,7.3s0.9,3.2,1.8,5h-9.8c-0.3-0.7-0.6-1.6-0.9-2.9c-0.2-0.6-0.3-1-0.4-1.2
		c-1.7,1.6-3.5,2.9-5.4,3.7s-4,1.2-6.2,1.2c-3.8,0-6.9-1-9.1-3.1c-2.2-2.2-3.3-4.8-3.3-8c0-2.1,0.5-4,1.5-5.6c1-1.7,2.4-2.9,4.2-3.8
		c1.8-0.9,4.4-1.6,7.9-2.3c4.6-0.9,7.8-1.7,9.6-2.4v-1c0-1.9-0.5-3.3-1.4-4.1c-0.9-0.8-2.7-1.2-5.3-1.2c-1.8,0-3.1,0.3-4.1,1
		C11.4,25.8,10.6,27,10,28.8z M23.2,36.8c-1.3,0.4-3.3,0.9-6,1.5s-4.5,1.2-5.4,1.7c-1.3,0.9-1.9,2.1-1.9,3.5s0.5,2.6,1.5,3.6
		s2.3,1.5,3.9,1.5c1.8,0,3.5-0.6,5.1-1.8c1.2-0.9,2-2,2.4-3.3c0.3-0.8,0.4-2.4,0.4-4.8V36.8z"/>
	<path class="st0" d="M41.9,17.4H51v5.1c3.3-4,7.1-5.9,11.6-5.9c2.4,0,4.5,0.5,6.2,1.5s3.2,2.5,4.3,4.5c1.6-2,3.4-3.5,5.3-4.5
		s3.9-1.5,6.1-1.5c2.7,0,5.1,0.6,7,1.7s3.3,2.7,4.3,4.9c0.7,1.6,1,4.2,1,7.7v23.9h-9.9V33.4c0-3.7-0.3-6.1-1-7.2
		c-0.9-1.4-2.3-2.1-4.2-2.1c-1.4,0-2.7,0.4-3.9,1.3c-1.2,0.8-2.1,2.1-2.6,3.7s-0.8,4.2-0.8,7.7v17.9h-9.9V34.2c0-3.6-0.2-6-0.5-7
		s-0.9-1.8-1.6-2.4c-0.7-0.5-1.7-0.8-3-0.8c-1.5,0-2.9,0.4-4.1,1.2c-1.2,0.8-2.1,2-2.6,3.6s-0.8,4.1-0.8,7.7v18.1H42V17.4H41.9z"/>
	<path class="st0" d="M114,28.8l-9-1.6c1-3.6,2.7-6.3,5.2-8c2.5-1.7,6.1-2.6,11-2.6c4.4,0,7.7,0.5,9.8,1.6c2.2,1,3.7,2.4,4.6,4
		c0.9,1.6,1.3,4.6,1.3,8.8l-0.1,11.5c0,3.3,0.2,5.7,0.5,7.3s0.9,3.2,1.8,5h-9.8c-0.3-0.7-0.6-1.6-0.9-2.9c-0.2-0.6-0.3-1-0.4-1.2
		c-1.7,1.6-3.5,2.9-5.4,3.7s-4,1.2-6.2,1.2c-3.8,0-6.9-1-9.1-3.1s-3.3-4.7-3.3-7.9c0-2.1,0.5-4,1.5-5.6c1-1.7,2.4-2.9,4.2-3.8
		c1.8-0.9,4.4-1.6,7.9-2.3c4.6-0.9,7.8-1.7,9.6-2.4v-1c0-1.9-0.5-3.3-1.4-4.1c-0.9-0.8-2.7-1.2-5.3-1.2c-1.8,0-3.1,0.3-4.1,1
		C115.5,25.8,114.7,27,114,28.8z M127.3,36.8c-1.3,0.4-3.3,0.9-6,1.5s-4.5,1.2-5.4,1.7c-1.3,0.9-1.9,2.1-1.9,3.5s0.5,2.6,1.5,3.6
		s2.3,1.5,3.9,1.5c1.8,0,3.5-0.6,5.1-1.8c1.2-0.9,2-2,2.4-3.3c0.3-0.8,0.4-2.4,0.4-4.8V36.8z"/>
	<path class="st0" d="M142.7,54.7V47l14-16.1c2.3-2.6,4-4.5,5.1-5.6c-1.1,0.1-2.7,0.1-4.5,0.1l-13.2,0.1v-8.2H175v7l-14.3,16.5
		l-5,5.4c2.7-0.2,4.4-0.2,5.1-0.2h15.3v8.7H142.7z"/>
	<path class="st0" d="M180.4,35.5c0-3.3,0.8-6.5,2.4-9.5c1.6-3.1,3.9-5.4,6.9-7s6.3-2.4,9.9-2.4c5.6,0,10.3,1.8,13.9,5.5
		c3.6,3.7,5.4,8.3,5.4,13.9s-1.8,10.3-5.5,14c-3.6,3.7-8.2,5.6-13.8,5.6c-3.4,0-6.7-0.8-9.8-2.3s-5.5-3.8-7.1-6.8
		S180.4,39.8,180.4,35.5z M190.5,36c0,3.7,0.9,6.5,2.6,8.5s3.9,3,6.5,3s4.7-1,6.5-3c1.7-2,2.6-4.8,2.6-8.6c0-3.7-0.9-6.5-2.6-8.4
		c-1.7-2-3.9-3-6.5-3s-4.7,1-6.5,3S190.5,32.3,190.5,36z"/>
	<path class="st0" d="M260.6,54.7h-9.9V35.6c0-4-0.2-6.6-0.6-7.8c-0.4-1.2-1.1-2.1-2.1-2.8c-0.9-0.7-2.1-1-3.4-1
		c-1.7,0-3.2,0.5-4.6,1.4c-1.4,0.9-2.3,2.2-2.8,3.7s-0.8,4.4-0.8,8.6v16.9h-9.9V17.4h9.2v5.5c3.3-4.2,7.4-6.3,12.3-6.3
		c2.2,0,4.2,0.4,6,1.2c1.8,0.8,3.2,1.8,4.1,3s1.6,2.6,1.9,4.1c0.4,1.5,0.5,3.8,0.5,6.6v23.2H260.6z"/>
	<path class="st0" d="M299.1,54.7h-5.8V0h5.8V54.7z"/>
	<path class="st0" d="M331.6,54.7l-1.2-5.5h-0.3c-1.9,2.4-3.8,4-5.7,4.9c-1.9,0.9-4.3,1.3-7.2,1.3c-3.8,0-6.8-1-9-3
		s-3.3-4.8-3.3-8.4c0-7.8,6.2-11.9,18.7-12.2l6.5-0.2v-2.4c0-3-0.7-5.3-2-6.7s-3.4-2.2-6.2-2.2c-3.2,0-6.8,1-10.9,3l-1.8-4.5
		c1.9-1,4-1.8,6.2-2.4c2.3-0.6,4.5-0.9,6.8-0.9c4.6,0,8,1,10.2,3.1s3.3,5.3,3.3,9.8v26.3H331.6z M318.4,50.6c3.6,0,6.5-1,8.6-3
		s3.1-4.8,3.1-8.4v-3.5l-5.8,0.2c-4.6,0.2-8,0.9-10,2.2c-2.1,1.3-3.1,3.3-3.1,6c0,2.1,0.6,3.7,1.9,4.8
		C314.3,50,316.1,50.6,318.4,50.6z"/>
	<path class="st0" d="M349.8,16.2v25c0,3.1,0.7,5.5,2.1,7s3.7,2.3,6.7,2.3c4,0,7-1.1,8.8-3.3c1.9-2.2,2.8-5.8,2.8-10.8V16.2h5.8
		v38.5h-4.8l-0.8-5.2h-0.3c-1.2,1.9-2.9,3.4-5,4.4s-4.5,1.5-7.3,1.5c-4.7,0-8.2-1.1-10.5-3.3s-3.5-5.8-3.5-10.7V16.2H349.8z"/>
	<path class="st0" d="M411.3,54.7V29.8c0-3.1-0.7-5.5-2.1-7s-3.7-2.3-6.7-2.3c-4,0-7,1.1-8.9,3.3s-2.8,5.8-2.8,10.8v20.2H385V16.2
		h4.7l0.9,5.3h0.3c1.2-1.9,2.9-3.4,5-4.4c2.2-1,4.6-1.6,7.2-1.6c4.6,0,8.1,1.1,10.5,3.4c2.3,2.2,3.5,5.8,3.5,10.7v25.1
		C417.1,54.7,411.3,54.7,411.3,54.7z"/>
	<path class="st0" d="M440.9,55.4c-5.6,0-9.9-1.7-13-5.2c-3.1-3.4-4.6-8.3-4.6-14.6c0-6.4,1.6-11.4,4.7-14.9s7.5-5.3,13.3-5.3
		c1.9,0,3.7,0.2,5.6,0.6s3.3,0.9,4.4,1.4l-1.8,5c-1.3-0.5-2.7-0.9-4.2-1.3c-1.5-0.3-2.9-0.5-4-0.5c-7.8,0-11.7,5-11.7,15
		c0,4.7,1,8.4,2.9,10.9s4.7,3.8,8.5,3.8c3.2,0,6.5-0.7,9.9-2.1v5.2C448.1,54.7,444.8,55.4,440.9,55.4z"/>
	<path class="st0" d="M482.6,54.7V29.8c0-3.1-0.7-5.5-2.1-7s-3.7-2.3-6.7-2.3c-4.1,0-7,1.1-8.9,3.3s-2.8,5.8-2.8,10.8v20.1h-5.8V0
		h5.8v16.6c0,2-0.1,3.6-0.3,5h0.4c1.1-1.9,2.8-3.3,4.9-4.4s4.5-1.6,7.3-1.6c4.7,0,8.2,1.1,10.6,3.4c2.4,2.2,3.5,5.8,3.5,10.7v25.1
		h-5.9V54.7z"/>
	<path class="st0" d="M514.7,55.4c-2.5,0-4.8-0.5-6.9-1.4s-3.8-2.3-5.2-4.3h-0.4c0.3,2.2,0.4,4.4,0.4,6.4V72h-5.8V16.2h4.7l0.8,5.3
		h0.3c1.5-2.1,3.2-3.6,5.2-4.6c2-0.9,4.3-1.4,6.9-1.4c5.1,0,9.1,1.7,11.8,5.2c2.8,3.5,4.2,8.4,4.2,14.7s-1.4,11.2-4.2,14.7
		C523.7,53.7,519.7,55.4,514.7,55.4z M513.9,20.4c-3.9,0-6.8,1.1-8.5,3.3s-2.7,5.6-2.7,10.4v1.3c0,5.4,0.9,9.3,2.7,11.6
		c1.8,2.3,4.7,3.5,8.7,3.5c3.3,0,5.9-1.3,7.8-4c1.9-2.7,2.8-6.4,2.8-11.1c0-4.8-0.9-8.5-2.8-11.1C520,21.7,517.3,20.4,513.9,20.4z"
		/>
	<path class="st0" d="M561,54.7l-1.2-5.5h-0.3c-1.9,2.4-3.8,4-5.7,4.9s-4.3,1.3-7.2,1.3c-3.8,0-6.8-1-9-3s-3.3-4.8-3.3-8.4
		c0-7.8,6.2-11.9,18.7-12.2l6.5-0.2v-2.4c0-3-0.7-5.3-2-6.7s-3.4-2.2-6.2-2.2c-3.2,0-6.8,1-10.9,3l-1.8-4.5c1.9-1,4-1.8,6.2-2.4
		c2.3-0.6,4.5-0.9,6.8-0.9c4.6,0,8,1,10.2,3.1s3.3,5.3,3.3,9.8v26.3H561z M547.8,50.6c3.6,0,6.5-1,8.6-3s3.1-4.8,3.1-8.4v-3.5
		l-5.8,0.2c-4.6,0.2-8,0.9-10,2.2c-2.1,1.3-3.1,3.3-3.1,6c0,2.1,0.6,3.7,1.9,4.8C543.7,50,545.5,50.6,547.8,50.6z"/>
	<path class="st0" d="M600,49.5h-0.3c-2.7,3.9-6.7,5.9-12.1,5.9c-5,0-9-1.7-11.8-5.2c-2.8-3.4-4.2-8.3-4.2-14.7s1.4-11.3,4.2-14.8
		s6.7-5.3,11.7-5.3c5.2,0,9.2,1.9,12,5.7h0.5l-0.2-2.8l-0.1-2.7V0h5.8v54.7h-4.7L600,49.5z M588.3,50.5c4,0,6.9-1.1,8.7-3.3
		s2.7-5.7,2.7-10.5v-1.2c0-5.5-0.9-9.4-2.7-11.7s-4.7-3.5-8.7-3.5c-3.4,0-6,1.3-7.9,4c-1.8,2.7-2.7,6.4-2.7,11.3s0.9,8.6,2.7,11.1
		C582.2,49.3,584.8,50.5,588.3,50.5z"/>
</g>
</svg>
