<?xml version="1.0" encoding="utf-8"?>
<!-- Generator: Adobe Illustrator 21.0.2, SVG Export Plug-In . SVG Version: 6.00 Build 0)  -->
<svg version="1.1" id="Ebene_1" xmlns="http://www.w3.org/2000/svg" xmlns:xlink="http://www.w3.org/1999/xlink" x="0px" y="0px"
	 viewBox="0 0 24.8 17.6" style="enable-background:new 0 0 24.8 17.6;" xml:space="preserve">
<style type="text/css">
	.st0{fill:#FFFFFF;}
</style>
<path class="st0" d="M22.8,0H2C0.9,0,0,0.9,0,2v13.6c0,1.1,0.9,2,2,2h20.8c1.1,0,2-0.9,2-2V2C24.8,0.9,23.9,0,22.8,0z M22.8,0.8
	c0.2,0,0.4,0.1,0.6,0.2l-10,8.7c-0.5,0.4-1.4,0.4-1.9,0L1.4,1C1.6,0.9,1.8,0.8,2,0.8H22.8z M24,15.6c0,0.7-0.5,1.2-1.2,1.2H2
	c-0.7,0-1.2-0.5-1.2-1.2V2c0-0.2,0-0.3,0.1-0.5l10,8.8c0.4,0.4,0.9,0.5,1.5,0.5c0.5,0,1.1-0.2,1.5-0.5l10-8.8C24,1.7,24,1.8,24,2
	V15.6z"/>
</svg>
