<?xml version="1.0" encoding="utf-8"?>
<!-- Generator: Adobe Illustrator 21.0.2, SVG Export Plug-In . SVG Version: 6.00 Build 0)  -->
<svg version="1.1" id="Ebene_1" xmlns="http://www.w3.org/2000/svg" xmlns:xlink="http://www.w3.org/1999/xlink" x="0px" y="0px"
	 viewBox="0 0 29.7 27" style="enable-background:new 0 0 29.7 27;" xml:space="preserve">
<style type="text/css">
	.st0{fill:#ffffff;}
</style>
<path class="st0" d="M29.7,9.2C29.7,4,24.9,0,19,0c-4.5,0-8.4,2.2-10,5.5c0.5,0,1,0,1.6-0.2c1.6-2.4,4.7-4,8.4-4
	c5.1,0,9.5,3.5,9.5,7.9c0,2.1-1.1,4-2.9,5.5c-0.5,0.3-0.6,1-0.5,1.4c0.6,1.9,0.6,1.9,0.6,1.9c-2.9-1-2.9-1-2.9-1
	c0,0.3-0.2,0.8-0.2,1.3c5,1.9,5,1.9,5,1.9c-1.3-4.5-1.3-4.5-1.3-4.5C28.4,14,29.7,11.7,29.7,9.2z M10.8,23.6c-0.8,0-1.6,0-2.4-0.2
	c-0.2,0-0.2-0.2-0.3-0.2s-0.3,0.2-0.5,0.2C4,24.7,4,24.7,4,24.7c0.5-1.9,0.5-1.9,0.5-1.9c0.2-0.5,0-1.1-0.3-1.4
	c-1.9-1.4-2.9-3.4-2.9-5.5c0-4.3,4.2-7.9,9.5-7.9c5.3,0,9.5,3.5,9.5,7.9S16.1,23.6,10.8,23.6z M10.8,6.7C4.8,6.7,0,10.8,0,15.9
	c0,2.6,1.3,5,3.2,6.6C1.9,27,1.9,27,1.9,27C8,24.7,8,24.7,8,24.7c0.8,0.2,1.8,0.3,2.7,0.3c5.9,0,10.9-4.2,10.9-9.2
	C21.7,10.8,16.7,6.7,10.8,6.7z"/>
</svg>
