<?xml version="1.0" encoding="utf-8"?>
<!-- Generator: Adobe Illustrator 21.0.2, SVG Export Plug-In . SVG Version: 6.00 Build 0)  -->
<svg version="1.1" id="Ebene_1" xmlns="http://www.w3.org/2000/svg" xmlns:xlink="http://www.w3.org/1999/xlink" x="0px" y="0px"
	 viewBox="0 0 204.5 204.5" style="enable-background:new 0 0 204.5 204.5;" xml:space="preserve">
<style type="text/css">
	.playButtonFill{fill:#FFFFFF;}
</style>
<path class="playButtonFill" d="M102.2,0.4C45.8,0.4,0,46.1,0,102.6c0,56.5,45.8,102.2,102.2,102.2c56.5,0,102.2-45.8,102.2-102.2
	C204.5,46.1,158.7,0.4,102.2,0.4z M154.8,110.7L81,153.3c-2.9,1.7-6.4,1.7-9.3,0c-2.9-1.7-4.7-4.7-4.7-8.1V60c0-3.3,1.8-6.4,4.7-8.1
	c2.9-1.7,6.4-1.7,9.3,0l73.8,42.6c2.9,1.7,4.7,4.7,4.7,8.1S157.7,109,154.8,110.7z"/>
</svg>
