<?xml version="1.0" encoding="utf-8"?>
<!-- Generator: Adobe Illustrator 21.0.2, SVG Export Plug-In . SVG Version: 6.00 Build 0)  -->
<svg version="1.1" id="Ebene_1" xmlns="http://www.w3.org/2000/svg" xmlns:xlink="http://www.w3.org/1999/xlink" x="0px" y="0px"
	 viewBox="0 0 32 32" style="enable-background:new 0 0 32 32;" xml:space="preserve">
<style type="text/css">
	.st0{fill:#FFFFFF;}
</style>
<path class="st0" d="M30.9,24.4l-3.6-3.6c-1.4-1.4-3.6-1.4-5,0l-0.9,0.9c-1,1-3.4,0.5-7.6-3.6c-3.5-3.5-4-5.5-4-6.4
	c0-0.5,0.1-0.8,0.4-1.1l0.9-0.9c1.3-1.3,1.3-3.7,0-5L7.6,1C6.9,0.4,6,0,5.1,0S3.3,0.4,2.6,1L1.7,1.9C0.6,3,0,4.7,0,6.6
	c0,4.7,3.4,11.1,8.9,16.6c7.9,8,17.2,11.1,21.2,7.2l0.9-0.9c0.7-0.7,1-1.6,1-2.5C32,26,31.6,25.1,30.9,24.4z M29.5,28l-0.9,0.9
	c-3,3-11.4-0.3-18.3-7.2c-5-5-8.3-11-8.3-15.2C2,5.1,2.4,4,3.1,3.3L4,2.5C4.3,2.2,4.7,2,5.1,2s0.8,0.2,1.1,0.4L9.8,6
	c0.6,0.6,0.6,1.6,0,2.2L8.9,9.1c-0.7,0.7-1,1.6-1,2.6c0,2.1,1.6,4.8,4.6,7.9c6.3,6.3,9.4,4.6,10.4,3.6l0.9-0.9
	c0.6-0.6,1.6-0.6,2.2,0l3.6,3.6C30.1,26.4,30.1,27.4,29.5,28z"/>
</svg>
