<?xml version="1.0" encoding="UTF-8"?>
<!DOCTYPE svg PUBLIC "-//W3C//DTD SVG 1.1//EN" "http://www.w3.org/Graphics/SVG/1.1/DTD/svg11.dtd">
<svg version="1.1" xmlns="http://www.w3.org/2000/svg" xmlns:xlink="http://www.w3.org/1999/xlink" x="0" y="0" width="354" height="379" viewBox="0, 0, 354, 379">
  <g id="Entrepreneur-Sign-Up">
    <path d="M329.952,355.452 C329.952,368.155 261.228,378.452 176.452,378.452 C91.676,378.452 22.952,368.155 22.952,355.452 C22.952,342.749 91.676,332.452 176.452,332.452 C261.228,332.452 329.952,342.749 329.952,355.452 z" fill="#D8D8D8" id="Oval-245" opacity="0.29"/>
    <g id="Oval-246-Copy-3">
      <path d="M351.904,176.952 C351.904,273.576 273.576,351.904 176.952,351.904 C80.328,351.904 2,273.576 2,176.952 C2,80.328 80.328,2 176.952,2 C273.576,2 351.904,80.328 351.904,176.952 z" fill="#FFFFFF"/>
      <path d="M176.952,0 C274.681,-0 353.904,79.223 353.904,176.952 C353.904,274.681 274.681,353.904 176.952,353.904 C79.223,353.904 -0,274.681 0,176.952 C-0,79.223 79.223,-0 176.952,0 z M176.952,4 C81.433,4 4,81.433 4,176.952 C4,272.471 81.433,349.904 176.952,349.904 C272.471,349.904 349.904,272.471 349.904,176.952 C349.904,81.433 272.471,4 176.952,4 z" fill="#4dcdad"/>
    </g>
    <path d="M289.119,28.952 L324.452,63.983 L324.452,66.702 L287.639,65.452 L287.139,28.952 L289.119,28.952 z" fill="#D8D8D8" id="Rectangle-430"/>
    <path d="M289.119,28.952 L289.119,63.983 L324.452,63.983 L324.452,274.452 L30.452,274.452 L30.452,28.952 L289.119,28.952 z" fill="#eac7ae"/>
    <path d="M33.952,31.952 L286.264,32.702 L286.264,67.202 L321.114,67.202 L321.114,277.952 L33.952,277.952 L33.952,31.952 z" fill="#FFFFFF"/>
    <g id="Rectangle-395">
      <path d="M71.952,188.952 L97.952,188.952 C99.057,188.952 99.952,189.847 99.952,190.952 L99.952,216.952 C99.952,218.057 99.057,218.952 97.952,218.952 L71.952,218.952 C70.847,218.952 69.952,218.057 69.952,216.952 L69.952,190.952 C69.952,189.847 70.847,188.952 71.952,188.952 z" fill="#FFFFFF"/>
      <path d="M71.952,188.952 L97.952,188.952 C99.057,188.952 99.952,189.847 99.952,190.952 L99.952,216.952 C99.952,218.057 99.057,218.952 97.952,218.952 L71.952,218.952 C70.847,218.952 69.952,218.057 69.952,216.952 L69.952,190.952 C69.952,189.847 70.847,188.952 71.952,188.952 z" fill-opacity="0" stroke="#E4E4E4" stroke-width="3"/>
    </g>
    <g id="Rectangle-395-Copy">
      <path d="M71.952,231.952 L97.952,231.952 C99.057,231.952 99.952,232.847 99.952,233.952 L99.952,259.952 C99.952,261.057 99.057,261.952 97.952,261.952 L71.952,261.952 C70.847,261.952 69.952,261.057 69.952,259.952 L69.952,233.952 C69.952,232.847 70.847,231.952 71.952,231.952 z" fill="#FFFFFF"/>
      <path d="M71.952,231.952 L97.952,231.952 C99.057,231.952 99.952,232.847 99.952,233.952 L99.952,259.952 C99.952,261.057 99.057,261.952 97.952,261.952 L71.952,261.952 C70.847,261.952 69.952,261.057 69.952,259.952 L69.952,233.952 C69.952,232.847 70.847,231.952 71.952,231.952 z" fill-opacity="0" stroke="#E4E4E4" stroke-width="3"/>
    </g>
    <path d="M78.952,199.604 L86.799,206.952 L104.952,189.952" fill-opacity="0" stroke="#eac7ae" stroke-width="10" stroke-linecap="round" id="Correct-Tick-Copy-5"/>
    <path d="M78.952,243.604 L86.799,250.952 L104.952,233.952" fill-opacity="0" stroke="#eac7ae" stroke-width="10" stroke-linecap="round" id="Correct-Tick-Copy-6"/>
    <g id="Rectangle-395-Copy-3">
      <path d="M71.952,144.952 L97.952,144.952 C99.057,144.952 99.952,145.847 99.952,146.952 L99.952,172.952 C99.952,174.057 99.057,174.952 97.952,174.952 L71.952,174.952 C70.847,174.952 69.952,174.057 69.952,172.952 L69.952,146.952 C69.952,145.847 70.847,144.952 71.952,144.952 z" fill="#FFFFFF"/>
      <path d="M71.952,144.952 L97.952,144.952 C99.057,144.952 99.952,145.847 99.952,146.952 L99.952,172.952 C99.952,174.057 99.057,174.952 97.952,174.952 L71.952,174.952 C70.847,174.952 69.952,174.057 69.952,172.952 L69.952,146.952 C69.952,145.847 70.847,144.952 71.952,144.952 z" fill-opacity="0" stroke="#E4E4E4" stroke-width="3"/>
    </g>
    <path d="M78.952,156.604 L86.799,163.952 L104.952,146.952" fill-opacity="0" stroke="#eac7ae" stroke-width="10" stroke-linecap="round" id="Correct-Tick-Copy-7"/>
    <path d="M132.675,203.452 L264.237,203.452" fill-opacity="0" stroke="#E4E4E4" stroke-width="10" stroke-linecap="square" id="Line"/>
    <path d="M132.675,159.452 L264.237,159.452" fill-opacity="0" stroke="#E4E4E4" stroke-width="10" stroke-linecap="square" id="Line-Copy-3"/>
    <path d="M132.675,247.452 L264.237,247.452" fill-opacity="0" stroke="#E4E4E4" stroke-width="10" stroke-linecap="square" id="Line-Copy-9"/>
    <g id="Rectangle-395-Copy-4">
      <path d="M71.952,277.952 L97.952,277.952 C99.057,277.952 99.952,278.847 99.952,279.952 L99.952,305.952 C99.952,307.057 99.057,307.952 97.952,307.952 L71.952,307.952 C70.847,307.952 69.952,307.057 69.952,305.952 L69.952,279.952 C69.952,278.847 70.847,277.952 71.952,277.952 z" fill="#FFFFFF"/>
      <path d="M71.952,277.952 L97.952,277.952 C99.057,277.952 99.952,278.847 99.952,279.952 L99.952,305.952 C99.952,307.057 99.057,307.952 97.952,307.952 L71.952,307.952 C70.847,307.952 69.952,307.057 69.952,305.952 L69.952,279.952 C69.952,278.847 70.847,277.952 71.952,277.952 z" fill-opacity="0" stroke="#E4E4E4" stroke-width="3"/>
    </g>
    <path d="M78.952,289.604 L86.799,296.952 L104.952,279.952" fill-opacity="0" stroke="#eac7ae" stroke-width="10" stroke-linecap="round" id="Correct-Tick-Copy-8"/>
    <path d="M132.675,290.452 L264.237,290.452" fill-opacity="0" stroke="#E4E4E4" stroke-width="5" stroke-linecap="square" id="Line-Copy-12"/>
    <path d="M76.979,73.452 L263.936,73.452" fill-opacity="0" stroke="#E4E4E4" stroke-width="5" stroke-linecap="square" id="Line-Copy-10"/>
    <path d="M76.979,115.452 L263.936,115.452" fill-opacity="0" stroke="#E4E4E4" stroke-width="5" stroke-linecap="square" id="Line-Copy-11"/>
    <path d="M3.068,194.654 C13.168,290.748 99.255,360.461 195.349,350.361 C291.444,340.261 361.156,254.173 351.056,158.079" fill-opacity="0" stroke="#4dcdad" stroke-width="4" id="Oval-246-Copy-4"/>
  </g>
</svg>
